<?xml version="1.0" encoding="UTF-8"?>
<svg xmlns="http://www.w3.org/2000/svg" xmlns:xlink="http://www.w3.org/1999/xlink" viewBox="0 0 500 500">
  <defs>
    <style>
      .cls-1 {
        fill: url(#linear-gradient-7);
      }

      .cls-1, .cls-2, .cls-3, .cls-4, .cls-5, .cls-6, .cls-7, .cls-8, .cls-9, .cls-10, .cls-11, .cls-12, .cls-13, .cls-14, .cls-15, .cls-16, .cls-17, .cls-18, .cls-19, .cls-20, .cls-21, .cls-22, .cls-23 {
        stroke-width: 0px;
      }

      .cls-1, .cls-3, .cls-5, .cls-6, .cls-7, .cls-13, .cls-15, .cls-17, .cls-19, .cls-20 {
        mix-blend-mode: multiply;
      }

      .cls-1, .cls-17 {
        opacity: .5;
      }

      .cls-2 {
        fill: url(#linear-gradient-9);
      }

      .cls-2, .cls-3, .cls-4, .cls-5, .cls-7, .cls-8, .cls-10, .cls-11, .cls-12, .cls-13, .cls-14, .cls-15, .cls-16, .cls-18, .cls-19, .cls-20, .cls-21, .cls-22, .cls-23 {
        fill-rule: evenodd;
      }

      .cls-3 {
        fill: url(#linear-gradient);
      }

      .cls-4 {
        fill: #84c468;
      }

      .cls-5 {
        fill: url(#linear-gradient-2);
      }

      .cls-6 {
        fill: url(#linear-gradient-11);
      }

      .cls-24 {
        isolation: isolate;
      }

      .cls-7 {
        fill: url(#linear-gradient-3);
      }

      .cls-8 {
        fill: #303030;
      }

      .cls-9 {
        fill: url(#linear-gradient-15);
      }

      .cls-10 {
        fill: url(#linear-gradient-13);
      }

      .cls-10, .cls-21 {
        opacity: .8;
      }

      .cls-11 {
        fill: #4f9d4d;
      }

      .cls-12 {
        fill: url(#linear-gradient-17);
      }

      .cls-13 {
        fill: url(#linear-gradient-16);
        opacity: .9;
      }

      .cls-14 {
        fill: #fff;
      }

      .cls-15 {
        fill: url(#linear-gradient-4);
      }

      .cls-15, .cls-19 {
        opacity: .7;
      }

      .cls-16 {
        fill: url(#linear-gradient-5);
      }

      .cls-17 {
        fill: url(#linear-gradient-12);
      }

      .cls-18 {
        fill: #414242;
      }

      .cls-19 {
        fill: url(#linear-gradient-8);
      }

      .cls-20 {
        fill: url(#linear-gradient-6);
      }

      .cls-21 {
        fill: url(#linear-gradient-14);
      }

      .cls-22 {
        fill: #60bb55;
      }

      .cls-23 {
        fill: url(#linear-gradient-10);
      }
    </style>
    <linearGradient id="linear-gradient" x1="290.26" y1="181.71" x2="72.9" y2="581.55" gradientUnits="userSpaceOnUse">
      <stop offset="0" stop-color="#519b4c" stop-opacity="0"/>
      <stop offset="1" stop-color="#519b4c"/>
    </linearGradient>
    <linearGradient id="linear-gradient-2" x1="244.99" y1="423.92" x2="245.9" y2="536.76" xlink:href="#linear-gradient"/>
    <linearGradient id="linear-gradient-3" x1="351.49" y1="267.45" x2="398.28" y2="647.27" xlink:href="#linear-gradient"/>
    <linearGradient id="linear-gradient-4" x1="454.76" y1="168.24" x2="208.2" y2="381.96" gradientUnits="userSpaceOnUse">
      <stop offset="0" stop-color="#3f843f"/>
      <stop offset="1" stop-color="#519b4c"/>
    </linearGradient>
    <linearGradient id="linear-gradient-5" x1="345.87" y1="345.94" x2="345.87" y2="245.1" gradientUnits="userSpaceOnUse">
      <stop offset="0" stop-color="#e5e3e3"/>
      <stop offset="1" stop-color="#e5e3e3" stop-opacity="0"/>
    </linearGradient>
    <linearGradient id="linear-gradient-6" x1="330.17" y1="432.83" x2="324.66" y2="531.91" xlink:href="#linear-gradient"/>
    <linearGradient id="linear-gradient-7" x1="250.84" y1="321.17" x2="248.52" y2="434.92" xlink:href="#linear-gradient-4"/>
    <linearGradient id="linear-gradient-8" x1="57.66" y1="262.63" x2="249.8" y2="262.63" xlink:href="#linear-gradient-4"/>
    <linearGradient id="linear-gradient-9" x1="153.73" y1="345.94" x2="153.73" y2="245.1" xlink:href="#linear-gradient-5"/>
    <linearGradient id="linear-gradient-10" x1="250.07" y1="284.88" x2="250.07" y2="353.46" gradientTransform="translate(-1.78 15.42) rotate(.07) scale(1.01 1.07) skewX(.13)" gradientUnits="userSpaceOnUse">
      <stop offset="0" stop-color="#f9ec31"/>
      <stop offset=".21" stop-color="#f8de2e"/>
      <stop offset=".61" stop-color="#f7bb26"/>
      <stop offset="1" stop-color="#f6921e"/>
    </linearGradient>
    <linearGradient id="linear-gradient-11" x1="303.4" y1="386.87" x2="245.49" y2="340.13" gradientTransform="matrix(1,0,0,1,0,0)" xlink:href="#linear-gradient-10"/>
    <linearGradient id="linear-gradient-12" x1="303.4" y1="386.87" x2="245.49" y2="340.13" gradientTransform="matrix(1,0,0,1,0,0)" xlink:href="#linear-gradient-10"/>
    <linearGradient id="linear-gradient-13" x1="142.5" y1="145.05" x2="142.5" y2="74.37" gradientUnits="userSpaceOnUse">
      <stop offset=".2" stop-color="#fff" stop-opacity="0"/>
      <stop offset=".97" stop-color="#fff"/>
    </linearGradient>
    <linearGradient id="linear-gradient-14" x1="366.19" y1="146.88" x2="366.19" y2="76.2" gradientTransform="translate(721.54) rotate(-180) scale(1 -1)" xlink:href="#linear-gradient-13"/>
    <linearGradient id="linear-gradient-15" x1="250.87" y1="314.18" x2="249.2" y2="396.07" gradientTransform="matrix(1,0,0,1,0,0)" xlink:href="#linear-gradient-10"/>
    <linearGradient id="linear-gradient-16" x1="290.91" y1="323.48" x2="219.31" y2="348.39" gradientUnits="userSpaceOnUse">
      <stop offset="0" stop-color="#f9ec31" stop-opacity="0"/>
      <stop offset=".09" stop-color="#f8e72f" stop-opacity=".06"/>
      <stop offset=".27" stop-color="#f8d92d" stop-opacity=".2"/>
      <stop offset=".51" stop-color="#f7c428" stop-opacity=".44"/>
      <stop offset=".8" stop-color="#f6a722" stop-opacity=".76"/>
      <stop offset="1" stop-color="#f6921e"/>
    </linearGradient>
    <linearGradient id="linear-gradient-17" x1="261.66" y1="385.92" x2="247.84" y2="285.18" xlink:href="#linear-gradient-13"/>
  </defs>
  <g class="cls-24">
    <g id="Mascot">
      <g>
        <path class="cls-18" d="m358.1,108.1c-5.67-54.68-51.97-97.2-108.08-97.1-56.09.11-102.2,42.44-108.46,96.83l-1.18,12.58,33.79,2.06.65-12.47c5.07-39.28,34.37-65.61,75.15-65.68,40.76-.08,70.8,26.64,75.23,66.35l2.1,16.8,32.86-2.35-2.05-17.01Z"/>
        <path class="cls-22" d="m52.1,103c-7.34.07-13.24,6.04-13.23,13.39l.37,194.79.07,34.83.02,9.31.23,120.35c.01,7.38,6.01,13.35,13.39,13.34l120.33-.23,21.01-.04,133.37-.25c73.56-.14,133.61-60.44,133.47-133.97l-.02-9.31-.42-218.66c-.03-13.4-10.86-24.26-24.26-24.31-24.51-.09-49.59-.14-73.9,1.28l-30.32,2.67c-27.07,3.35-54.42,9.45-76.26,20.49-3.87,1.96-8.43,1.98-12.28-.03-22.9-11.92-47.81-18.07-76.2-21.2l-30.33-2.24c-28.46-1.27-57.53-.5-85.05-.21Z"/>
        <path class="cls-3" d="m65.52,102.84c-14.79.2-26.66,12.26-26.63,27.04l.35,181.29.07,34.83.02,9.31.23,120.14c.01,7.5,6.11,13.57,13.61,13.55l120.11-.23,21.01-.04,133.37-.25c73.56-.14,133.61-60.44,133.47-133.97l-.02-9.31-.42-218.44c-.03-13.52-10.96-24.47-24.47-24.52-24.44-.09-49.44-.13-73.69,1.28l-30.32,2.67c-27.03,3.34-54.33,9.43-76.16,20.44-3.94,1.99-8.56,2-12.47-.03-22.88-11.88-47.75-18.03-76.1-21.15l-30.33-2.24c-23.87-1.07-48.17-.69-71.62-.38Z"/>
        <path class="cls-4" d="m77.4,488.95l95.88-.18,21.01-.04,133.37-.25c32.59-.06,62.5-11.94,85.71-31.51-27.27-63.06-90.11-107.11-163.16-106.97-84.65.16-155.31,59.59-172.81,138.96"/>
        <path class="cls-5" d="m77.4,488.95l95.88-.18,21.01-.04,133.37-.25c32.59-.06,62.5-11.94,85.71-31.51-27.27-63.06-90.11-107.11-163.16-106.97-84.65.16-155.31,59.59-172.81,138.96"/>
        <path class="cls-11" d="m250.48,488.62l78.73-1.31c32.15-.06,61.4-11.46,84.16-30.34,29.31-24.31,47.83-61.08,47.75-102.47l-.02-9.31-.44-231.95c-.01-6.05-4.9-10.95-10.95-10.96-28.66-.06-58.45-.44-87.19,1.24l-30.32,2.67c-29.67,3.67-59.68,10.65-82.41,23.82l.69,358.61Z"/>
        <path class="cls-7" d="m250.48,488.62l78.73-1.31c32.15-.06,61.4-11.46,84.16-30.34,29.31-24.31,47.83-61.08,47.75-102.47l-.02-9.31-.44-231.95c-.01-6.05-4.9-10.95-10.95-10.96-28.66-.06-58.45-.44-87.19,1.24l-30.32,2.67c-29.67,3.67-59.68,10.65-82.41,23.82l.69,358.61Z"/>
        <path class="cls-15" d="m345.68,166.56c53.05-.1,96.16,42.84,96.26,95.88.1,53.04-42.84,96.15-95.89,96.25-53.07.1-96.15-42.84-96.25-95.88-.1-53.04,42.81-96.15,95.88-96.25"/>
        <path class="cls-14" d="m345.7,179.19c46.08-.09,83.52,37.21,83.61,83.28.09,46.07-37.21,83.52-83.29,83.61-46.1.09-83.51-37.21-83.6-83.29-.09-46.07,37.19-83.51,83.28-83.6"/>
        <path class="cls-16" d="m426.46,239.73c-10.03,35.01-42.28,60.68-80.53,60.76-38.25.07-70.56-25.45-80.76-60.39-2.12,7.4-3.27,15.2-3.25,23.28.09,46.35,37.74,83.88,84.1,83.79,46.36-.09,83.88-37.76,83.79-84.11-.02-8.1-1.2-15.91-3.36-23.32Z"/>
        <path class="cls-8" d="m336.3,208.57c30.34-3.09,57.47,19,60.56,49.31,3.1,30.36-19.01,57.47-49.36,60.57-30.36,3.1-57.47-18.99-60.56-49.36-1.03-10.11.76-19.87,4.7-28.5,4.91,9.3,15.1,15.14,26.22,14.01,14.61-1.49,25.27-14.52,23.78-29.14-.67-6.58-3.68-12.34-8.11-16.55.91-.15,1.84-.25,2.76-.34"/>
        <path class="cls-22" d="m250.48,488.62l77.66-.15c32.59-.06,62.02-11.93,85.23-31.5-26.97-62.35-91.15-106.12-163.16-106.94l.26,138.59Z"/>
        <path class="cls-20" d="m250.48,488.62l77.66-.15c32.59-.06,62.02-11.93,85.23-31.5-26.97-62.35-91.15-106.12-163.16-106.94l.26,138.59Z"/>
        <path class="cls-1" d="m300.96,345.45c-8.84-32.9-41.39-35.86-50.22-36.36-.43-.02-.72-.1-2.02.03-8.5.84-41.23,4.22-49.19,37.77-.2,1.08-.07,4.2-.05,5.34l.05.12s2.79,1.85,7.08,4.57c5.65,15.66,32.79,45.25,43.86,45.27.37,0,.61-.03,1.01-.03,9.17.01,33.92-26.72,41.18-44.06,4.42-2.85,7.54-5,8.16-5.58.25-2.08.53-5.21.14-7.07Z"/>
        <path class="cls-19" d="m153.54,166.56c53.05-.1,96.16,42.84,96.26,95.88.1,53.04-42.84,96.15-95.89,96.25-53.07.1-96.15-42.84-96.25-95.88-.1-53.04,42.81-96.15,95.88-96.25"/>
        <path class="cls-14" d="m153.57,179.19c46.08-.09,83.52,37.21,83.61,83.28.09,46.07-37.21,83.52-83.29,83.61-46.1.09-83.51-37.21-83.6-83.29-.09-46.07,37.19-83.51,83.28-83.6"/>
        <path class="cls-2" d="m234.32,239.73c-10.03,35.01-42.28,60.68-80.53,60.76-38.25.07-70.56-25.45-80.76-60.39-2.12,7.4-3.27,15.2-3.25,23.28.09,46.35,37.74,83.88,84.1,83.79,46.36-.09,83.88-37.76,83.79-84.11-.02-8.1-1.2-15.91-3.36-23.32Z"/>
        <path class="cls-8" d="m162.66,208.29c30.5-.06,55.29,24.62,55.35,55.09.06,30.52-24.64,55.29-55.14,55.35-30.52.06-55.29-24.62-55.35-55.14-.02-10.16,2.73-19.69,7.51-27.89,3.96,9.75,13.52,16.57,24.7,16.55,14.69-.03,26.59-11.93,26.56-26.63-.01-6.61-2.44-12.64-6.42-17.27.92-.06,1.86-.06,2.78-.06"/>
        <path class="cls-23" d="m251.48,394.57c11.11.02,45.08-37.52,43.15-51.15-7.82-29.5-36.24-33.21-44.02-33.66-.38-.02-.63-.09-1.78.02-7.49.74-36.18,5.52-43.16,35.59-2.3,11.34,32.01,49.2,44.81,49.22.37,0,.61-.03,1.01-.03Z"/>
        <path class="cls-6" d="m287.69,361.35c4.63-7.06,7.54-13.67,6.93-17.93-3.14-11.86-9.62-19.55-16.74-24.53-10.97-5.94-22.42-7.19-27.15-7.44-.43-.02-.72-.09-2.02.03-4.55.43-16,2.11-26.88,8.51-7.04,5.29-13.36,13.29-16.17,25.39-.65,3.23,1.66,8.6,5.6,14.64,12.76,7.57,32.24,18.44,39.01,18.44s24.88-9.65,37.43-17.1Z"/>
        <path class="cls-17" d="m287.69,361.35c4.63-7.06,7.54-13.67,6.93-17.93-3.14-11.86-9.62-19.55-16.74-24.53-10.97-5.94-22.42-7.19-27.15-7.44-.43-.02-.72-.09-2.02.03-4.55.43-16,2.11-26.88,8.51-7.04,5.29-13.36,13.29-16.17,25.39-.65,3.23,1.66,8.6,5.6,14.64,12.76,7.57,32.24,18.44,39.01,18.44s24.88-9.65,37.43-17.1Z"/>
        <path class="cls-10" d="m240.79,134.58c-22.91-13.18-47.89-19.71-76.72-22.88l-28.26-2.09c-26.5-1.19-53.58-.46-79.21-.2-6.87.07-12.39,5.66-12.38,12.52,88.85-15.77,196.57,12.65,196.57,12.65Z"/>
        <path class="cls-21" d="m257.06,134.58c22.91-13.18,47.89-19.71,76.72-22.88l28.26-2.09c26.5-1.19,53.58-.46,79.21-.2,6.87.07,12.39,5.66,12.38,12.52-88.85-15.77-196.57,12.65-196.57,12.65Z"/>
        <path class="cls-9" d="m300.64,341.37c-8.84-31.49-41.08-35.4-49.91-35.87-.43-.02-.72-.09-2.02.03-8.5.8-41.05,5.95-49,38.06-.2,1.03-.25,2.11-.24,3.2l.05.11s40.35,25.6,50.74,25.6,48.21-23.36,50.56-25.44c.25-1.99.22-3.91-.18-5.69Z"/>
        <path class="cls-13" d="m199.71,343.58c-.2,1.03-.25,2.11-.24,3.2l.05.11s39.23,24.89,50.27,25.57c3.05-61.84-1.08-66.94-1.08-66.94-8.5.8-41.05,5.95-49,38.06Z"/>
        <g>
          <path class="cls-12" d="m260.83,306.83c-4.32-.9-7.92-1.22-10.09-1.34-.43-.02-.72-.09-2.02.03,0,0,4.13,5.1,1.08,66.94,5.2-13.9,9.2-47.79,11.03-65.63Z"/>
          <path class="cls-14" d="m247.45,305.66c-.08,0-.16.02-.24.03.08,0,.16-.02.24-.03Z"/>
        </g>
      </g>
    </g>
  </g>
</svg>